<svg width="42" height="43" viewBox="0 0 42 43" fill="none" xmlns="http://www.w3.org/2000/svg">
<rect x="25.8555" y="35.1453" width="10.2339" height="3.07018" transform="rotate(-40.0011 25.8555 35.1453)" fill="url(#paint0_linear_452_105)"/>
<path fill-rule="evenodd" clip-rule="evenodd" d="M8.21964 9.1102L8.64915 8.8015L19.4663 21.6924C18.9879 22.6877 19.1024 23.9134 19.8584 24.8144C20.8878 26.0411 22.7167 26.2011 23.9434 25.1717C25.1702 24.1423 25.3302 22.3133 24.3008 21.0866C23.5452 20.1862 22.3588 19.8605 21.296 20.158L10.5937 7.40394L11.0688 7.06247L31.9472 15.3386L32.4694 27.5035L24.7606 33.9723L12.871 31.346L8.21964 9.1102Z" fill="url(#paint1_linear_452_105)"/>
<defs>
<linearGradient id="paint0_linear_452_105" x1="30.7045" y1="4.42554" x2="30.9724" y2="38.2154" gradientUnits="userSpaceOnUse">
<stop stop-color="#CB1CA4"/>
<stop offset="1" stop-color="#1CABCB"/>
</linearGradient>
<linearGradient id="paint1_linear_452_105" x1="9.5381" y1="8.00384" x2="28.615" y2="30.7379" gradientUnits="userSpaceOnUse">
<stop stop-color="#CB1CA4"/>
<stop offset="1" stop-color="#1CABCB"/>
</linearGradient>
</defs>
</svg>
